<mxfile host="app.diagrams.net" modified="2023-09-11T06:28:20.608Z" agent="Mozilla/5.0 (X11; Ubuntu; Linux x86_64; rv:109.0) Gecko/20100101 Firefox/115.0" etag="sFyVkqqSTGtgjmGTNFjR" version="21.7.4" type="github">
  <diagram name="Page-1" id="oX0O7x2AV8OLNEpr0H9C">
    <mxGraphModel dx="1442" dy="1065" grid="0" gridSize="10" guides="1" tooltips="1" connect="1" arrows="1" fold="1" page="0" pageScale="1" pageWidth="850" pageHeight="1100" math="0" shadow="0">
      <root>
        <mxCell id="0" />
        <mxCell id="1" parent="0" />
        <mxCell id="jiFoIyTCXKEM6r-_tV8Z-6" value="" style="rounded=0;whiteSpace=wrap;html=1;fontSize=16;" vertex="1" parent="1">
          <mxGeometry x="109" y="-131" width="266" height="370" as="geometry" />
        </mxCell>
        <mxCell id="jiFoIyTCXKEM6r-_tV8Z-13" value="Game tebak angka" style="text;html=1;strokeColor=none;fillColor=none;align=center;verticalAlign=middle;whiteSpace=wrap;rounded=0;fontSize=16;" vertex="1" parent="1">
          <mxGeometry x="160" y="-125" width="167" height="34" as="geometry" />
        </mxCell>
        <mxCell id="jiFoIyTCXKEM6r-_tV8Z-14" value="" style="ellipse;whiteSpace=wrap;html=1;fontSize=16;" vertex="1" parent="1">
          <mxGeometry x="171" y="-43" width="127" height="58" as="geometry" />
        </mxCell>
        <mxCell id="jiFoIyTCXKEM6r-_tV8Z-16" value="Random Angka" style="text;html=1;strokeColor=none;fillColor=none;align=center;verticalAlign=middle;whiteSpace=wrap;rounded=0;fontSize=16;" vertex="1" parent="1">
          <mxGeometry x="171.75" y="-39" width="124.5" height="56" as="geometry" />
        </mxCell>
        <mxCell id="jiFoIyTCXKEM6r-_tV8Z-22" value="&lt;div&gt;&lt;br&gt;&lt;/div&gt;&lt;div&gt;Komputer&lt;br&gt;&lt;/div&gt;" style="shape=umlActor;verticalLabelPosition=bottom;verticalAlign=top;html=1;outlineConnect=0;fontSize=16;" vertex="1" parent="1">
          <mxGeometry x="-111" y="24" width="74" height="137" as="geometry" />
        </mxCell>
        <mxCell id="jiFoIyTCXKEM6r-_tV8Z-23" value="User" style="shape=umlActor;verticalLabelPosition=bottom;verticalAlign=top;html=1;outlineConnect=0;fontSize=16;" vertex="1" parent="1">
          <mxGeometry x="501" y="35" width="73" height="145" as="geometry" />
        </mxCell>
        <mxCell id="jiFoIyTCXKEM6r-_tV8Z-25" value="" style="endArrow=none;html=1;rounded=0;fontSize=12;startSize=8;endSize=8;curved=1;entryX=0.047;entryY=0.706;entryDx=0;entryDy=0;entryPerimeter=0;" edge="1" parent="1" target="jiFoIyTCXKEM6r-_tV8Z-14">
          <mxGeometry width="50" height="50" relative="1" as="geometry">
            <mxPoint x="-30" y="94" as="sourcePoint" />
            <mxPoint x="173" y="75" as="targetPoint" />
            <Array as="points">
              <mxPoint x="130" y="19" />
            </Array>
          </mxGeometry>
        </mxCell>
        <mxCell id="jiFoIyTCXKEM6r-_tV8Z-26" value="" style="ellipse;whiteSpace=wrap;html=1;fontSize=16;" vertex="1" parent="1">
          <mxGeometry x="177" y="121" width="135" height="63" as="geometry" />
        </mxCell>
        <mxCell id="jiFoIyTCXKEM6r-_tV8Z-27" value="&lt;div&gt;&lt;br&gt;&lt;/div&gt;&lt;div&gt;Tebak Angka&lt;br&gt;&lt;/div&gt;" style="text;html=1;strokeColor=none;fillColor=none;align=center;verticalAlign=middle;whiteSpace=wrap;rounded=0;fontSize=16;" vertex="1" parent="1">
          <mxGeometry x="184.75" y="111" width="111.5" height="69" as="geometry" />
        </mxCell>
        <mxCell id="jiFoIyTCXKEM6r-_tV8Z-28" style="edgeStyle=none;curved=1;rounded=0;orthogonalLoop=1;jettySize=auto;html=1;entryX=1;entryY=0.25;entryDx=0;entryDy=0;fontSize=12;startSize=8;endSize=8;" edge="1" parent="1" source="jiFoIyTCXKEM6r-_tV8Z-27" target="jiFoIyTCXKEM6r-_tV8Z-27">
          <mxGeometry relative="1" as="geometry" />
        </mxCell>
        <mxCell id="jiFoIyTCXKEM6r-_tV8Z-30" value="" style="endArrow=none;html=1;rounded=0;fontSize=12;startSize=8;endSize=8;curved=1;" edge="1" parent="1">
          <mxGeometry width="50" height="50" relative="1" as="geometry">
            <mxPoint x="310" y="158" as="sourcePoint" />
            <mxPoint x="498" y="100" as="targetPoint" />
          </mxGeometry>
        </mxCell>
      </root>
    </mxGraphModel>
  </diagram>
</mxfile>
